<svg width="60" height="60" viewBox="0 0 60 60" fill="none" xmlns="http://www.w3.org/2000/svg">
<rect width="60" height="60" rx="30" fill="#FF4949"/>
<path d="M40.3547 38.3596C38.7484 35.5826 36.273 33.5913 33.3843 32.6474C34.8132 31.7967 35.9234 30.5005 36.5443 28.9579C37.1653 27.4152 37.2627 25.7113 36.8215 24.1079C36.3804 22.5046 35.4252 21.0903 34.1025 20.0824C32.7798 19.0744 31.1628 18.5286 29.4998 18.5286C27.8369 18.5286 26.2199 19.0744 24.8972 20.0824C23.5745 21.0903 22.6193 22.5046 22.1781 24.1079C21.737 25.7113 21.8344 27.4152 22.4554 28.9579C23.0763 30.5005 24.1865 31.7967 25.6154 32.6474C22.7266 33.5903 20.2513 35.5815 18.645 38.3596C18.5861 38.4556 18.547 38.5625 18.5301 38.6739C18.5132 38.7853 18.5187 38.8989 18.5464 39.0081C18.5741 39.1174 18.6234 39.2199 18.6914 39.3098C18.7594 39.3996 18.8447 39.4749 18.9422 39.5313C19.0398 39.5877 19.1477 39.6239 19.2595 39.6379C19.3713 39.6519 19.4847 39.6433 19.5932 39.6128C19.7016 39.5822 19.8029 39.5302 19.8909 39.4599C19.9789 39.3896 20.052 39.3023 20.1057 39.2033C22.0928 35.7692 25.6049 33.7189 29.4998 33.7189C33.3948 33.7189 36.9069 35.7692 38.8939 39.2033C38.9477 39.3023 39.0208 39.3896 39.1088 39.4599C39.1968 39.5302 39.2981 39.5822 39.4065 39.6128C39.5149 39.6433 39.6284 39.6519 39.7402 39.6379C39.852 39.6239 39.9599 39.5877 40.0574 39.5313C40.155 39.4749 40.2403 39.3996 40.3083 39.3098C40.3763 39.2199 40.4256 39.1174 40.4533 39.0081C40.481 38.8989 40.4865 38.7853 40.4696 38.6739C40.4527 38.5625 40.4136 38.4556 40.3547 38.3596ZM23.5936 26.1252C23.5936 24.957 23.94 23.8151 24.589 22.8438C25.238 21.8726 26.1604 21.1156 27.2396 20.6685C28.3188 20.2215 29.5064 20.1045 30.6521 20.3324C31.7978 20.5603 32.8502 21.1228 33.6762 21.9488C34.5022 22.7748 35.0647 23.8272 35.2926 24.9729C35.5205 26.1186 35.4035 27.3062 34.9565 28.3854C34.5095 29.4646 33.7525 30.3871 32.7812 31.0361C31.8099 31.685 30.668 32.0314 29.4998 32.0314C27.9339 32.0298 26.4326 31.407 25.3253 30.2997C24.2181 29.1924 23.5953 27.6911 23.5936 26.1252Z" fill="white"/>
<path d="M40.3547 38.3596C38.7484 35.5826 36.273 33.5913 33.3843 32.6474C34.8132 31.7967 35.9234 30.5005 36.5443 28.9579C37.1653 27.4152 37.2627 25.7113 36.8215 24.1079C36.3804 22.5046 35.4252 21.0903 34.1025 20.0824C32.7798 19.0744 31.1628 18.5286 29.4998 18.5286C27.8369 18.5286 26.2199 19.0744 24.8972 20.0824C23.5745 21.0903 22.6193 22.5046 22.1781 24.1079C21.737 25.7113 21.8344 27.4152 22.4554 28.9579C23.0763 30.5005 24.1865 31.7967 25.6154 32.6474C22.7266 33.5903 20.2513 35.5815 18.645 38.3596C18.5861 38.4556 18.547 38.5625 18.5301 38.6739C18.5132 38.7853 18.5187 38.8989 18.5464 39.0081C18.5741 39.1174 18.6234 39.2199 18.6914 39.3098C18.7594 39.3996 18.8447 39.4749 18.9422 39.5313C19.0398 39.5877 19.1477 39.6239 19.2595 39.6379C19.3713 39.6519 19.4847 39.6433 19.5932 39.6128C19.7016 39.5822 19.8029 39.5302 19.8909 39.4599C19.9789 39.3896 20.052 39.3023 20.1057 39.2033C22.0928 35.7692 25.6049 33.7189 29.4998 33.7189C33.3948 33.7189 36.9069 35.7692 38.8939 39.2033C38.9477 39.3023 39.0208 39.3896 39.1088 39.4599C39.1968 39.5302 39.2981 39.5822 39.4065 39.6128C39.5149 39.6433 39.6284 39.6519 39.7402 39.6379C39.852 39.6239 39.9599 39.5877 40.0574 39.5313C40.155 39.4749 40.2403 39.3996 40.3083 39.3098C40.3763 39.2199 40.4256 39.1174 40.4533 39.0081C40.481 38.8989 40.4865 38.7853 40.4696 38.6739C40.4527 38.5625 40.4136 38.4556 40.3547 38.3596ZM23.5936 26.1252C23.5936 24.957 23.94 23.8151 24.589 22.8438C25.238 21.8726 26.1604 21.1156 27.2396 20.6685C28.3188 20.2215 29.5064 20.1045 30.6521 20.3324C31.7978 20.5603 32.8502 21.1228 33.6762 21.9488C34.5022 22.7748 35.0647 23.8272 35.2926 24.9729C35.5205 26.1186 35.4035 27.3062 34.9565 28.3854C34.5095 29.4646 33.7525 30.3871 32.7812 31.0361C31.8099 31.685 30.668 32.0314 29.4998 32.0314C27.9339 32.0298 26.4326 31.407 25.3253 30.2997C24.2181 29.1924 23.5953 27.6911 23.5936 26.1252Z" fill="black" fill-opacity="0.05"/>
</svg>
