<svg width="16" height="23" viewBox="0 0 16 23" fill="none" xmlns="http://www.w3.org/2000/svg">
<path fill-rule="evenodd" clip-rule="evenodd" d="M0.96875 3.01562C0.96875 1.61765 2.10203 0.484375 3.5 0.484375H12.5C13.898 0.484375 15.0312 1.61765 15.0312 3.01562V19.9844C15.0312 21.3823 13.898 22.5156 12.5 22.5156H3.5C2.10203 22.5156 0.96875 21.3823 0.96875 19.9844V3.01562ZM11.2208 2.81566C11.3152 2.6225 11.5113 2.5 11.7263 2.5H12.5C12.7848 2.5 13.0156 2.73085 13.0156 3.01562V19.9844C13.0156 20.2691 12.7848 20.5 12.5 20.5H3.5C3.21523 20.5 2.98438 20.2691 2.98438 19.9844V3.01562C2.98438 2.73085 3.21523 2.5 3.5 2.5H4.27371C4.48867 2.5 4.68483 2.6225 4.77916 2.81565L5.35245 3.98953C5.50966 4.31145 5.8366 4.51562 6.19485 4.51562H9.80515C10.1634 4.51562 10.4903 4.31145 10.6476 3.98953L11.2208 2.81566Z" fill="#FF4949"/>
</svg>
