<svg width="20" height="17" viewBox="0 0 20 17" fill="none" xmlns="http://www.w3.org/2000/svg">
<path fill-rule="evenodd" clip-rule="evenodd" d="M4.16168 0.500001H15.8388C16.3659 0.499983 16.8205 0.499967 17.1949 0.530575C17.5902 0.562892 17.9831 0.634244 18.3614 0.826982C18.9248 1.11405 19.3851 1.57224 19.6732 2.13781C19.8659 2.516 19.9372 2.90906 19.9695 3.30397C20 3.67815 20 4.1323 20 4.65839V12.3421C20 12.8682 20 13.3222 19.9695 13.6962C19.9372 14.091 19.8659 14.4838 19.6732 14.8619C19.3854 15.4269 18.9254 15.8859 18.3614 16.1732C17.9833 16.3659 17.5905 16.4372 17.1957 16.4695C16.8217 16.5 16.3677 16.5 15.8416 16.5H4.15839C3.6323 16.5 3.17815 16.5 2.80397 16.4695C2.40906 16.4372 2.016 16.3659 1.63781 16.1732C1.07276 15.8853 0.614314 15.4258 0.326982 14.8619C0.13421 14.4835 0.0628795 14.0904 0.0305727 13.6951C-3.25181e-05 13.3206 -1.70213e-05 12.8659 8.60089e-07 12.3388V4.66168C-1.70213e-05 4.13451 -3.23988e-05 3.67965 0.0305692 3.30499C0.0628619 2.90962 0.134158 2.51625 0.326982 2.13781C0.614602 1.57332 1.07332 1.1146 1.63781 0.826982C2.01625 0.634158 2.40962 0.562862 2.80499 0.530569C3.17965 0.499968 3.63451 0.499983 4.16168 0.500001ZM3.66103 2.50124L8.71027 6.31425C8.71123 6.31497 8.71219 6.3157 8.71314 6.31643C9.45093 6.85724 9.60944 6.95194 9.74917 6.98808C9.9134 7.03055 10.0863 7.03055 10.2506 6.98808C10.3908 6.95181 10.5505 6.85625 11.2925 6.31225L11.457 6.18613C11.5687 6.10061 11.7305 5.97669 11.9316 5.823C12.3336 5.51564 12.8925 5.08906 13.52 4.61219C14.3971 3.94563 15.4111 3.17862 16.3186 2.5011C16.1662 2.50009 15.9948 2.5 15.8002 2.5H4.2002C3.99674 2.5 3.8187 2.5001 3.66103 2.50124ZM17.9915 3.74914C16.9855 4.49551 15.7662 5.41716 14.7301 6.20454C14.1045 6.67999 13.5472 7.10536 13.1463 7.41187C12.9458 7.56512 12.7845 7.68862 12.6733 7.77378L12.5021 7.90507L12.4839 7.91867C12.4439 7.94802 12.4043 7.97717 12.365 8.00607C11.806 8.4173 11.3149 8.77861 10.7514 8.92436C10.2587 9.05179 9.74106 9.05179 9.24835 8.92436C8.68517 8.77869 8.19502 8.4181 7.637 8.00758C7.59779 7.97874 7.55824 7.94964 7.51831 7.92036C7.51036 7.91453 7.50249 7.90858 7.49472 7.90252L2.00824 3.75933C2.00037 4.0008 2 4.30175 2 4.7002V12.3002C2 12.8768 2.00078 13.2489 2.02393 13.5322C2.04612 13.8037 2.08378 13.9044 2.109 13.9539C2.20516 14.1426 2.35819 14.2956 2.54579 14.3912C2.59501 14.4163 2.69554 14.4539 2.96686 14.4761C3.2498 14.4992 3.62146 14.5 4.19691 14.5H15.8031C16.3786 14.5 16.75 14.4992 17.0327 14.4761C17.3036 14.454 17.4041 14.4164 17.4534 14.3912C17.6421 14.2951 17.7956 14.1415 17.8912 13.9539C17.9164 13.9046 17.954 13.8041 17.9761 13.5332C17.9992 13.2505 18 12.879 18 12.3036V4.69691C18 4.29441 17.9996 3.99161 17.9915 3.74914Z" fill="#FF4949"/>
</svg>
