<svg width="18" height="18" viewBox="0 0 18 18" fill="none" xmlns="http://www.w3.org/2000/svg">
<path d="M17.2793 6.00865C17.4711 6.16146 17.6138 6.36733 17.6895 6.60063C17.7664 6.83481 17.7723 7.08651 17.7066 7.32408C17.6408 7.56164 17.5063 7.77446 17.3199 7.93578L13.7965 11.0108L14.852 15.5889C14.9078 15.8282 14.8919 16.0787 14.8062 16.309C14.7204 16.5394 14.5687 16.7393 14.3699 16.8839C14.1712 17.0284 13.9342 17.1112 13.6887 17.1218C13.4432 17.1324 13.2 17.0704 12.9895 16.9436L8.9965 14.5217L5.01213 16.9436C4.80164 17.0704 4.55842 17.1324 4.31289 17.1218C4.06736 17.1112 3.8304 17.0284 3.63165 16.8839C3.43291 16.7393 3.28118 16.5394 3.19545 16.309C3.10971 16.0787 3.09377 15.8282 3.14963 15.5889L4.20588 11.0155L0.681658 7.93578C0.495259 7.77502 0.360472 7.5628 0.294202 7.32574C0.227931 7.08868 0.233126 6.83733 0.309136 6.60321C0.385146 6.36909 0.528586 6.16262 0.721469 6.0097C0.914352 5.85678 1.14809 5.76421 1.39338 5.74359L6.03869 5.34125L7.85197 1.01625C7.94666 0.78931 8.10638 0.595459 8.31102 0.459108C8.51566 0.322756 8.75607 0.25 9.00197 0.25C9.24788 0.25 9.48828 0.322756 9.69292 0.459108C9.89756 0.595459 10.0573 0.78931 10.152 1.01625L11.9707 5.34125L16.6106 5.74125C16.8549 5.76285 17.0874 5.85584 17.2793 6.00865Z" fill="#FF4949"/>
</svg>
